<svg xmlns="http://www.w3.org/2000/svg" viewBox="0 0 240 55.47"><defs><style>.cls-1{fill:#231815;}</style></defs><path class="cls-1" d="M71.94,18.49a20,20,0,0,0-11,3.25c-5.09,3.37-7.68,8.7-7.68,15.82,0,11.13,6.51,17.77,17.4,17.77s18.13-7.81,18.13-19.44a20.86,20.86,0,0,0-2.39-10C83.29,20.92,78.57,18.49,71.94,18.49Zm-.36,33.85c-6.72,0-11.07-6.4-11.07-16.3,0-12,5.31-14.56,9.76-14.56a9.15,9.15,0,0,1,8.5,4.79c1.7,2.77,2.49,6.53,2.49,11.8C81.26,46.87,77.55,52.34,71.58,52.34Z"/><path class="cls-1" d="M217.59,53.38l-2.23-.7c-1.8-.61-2.06-1-2.14-2.94s-.08-5.83-.08-9.56V.31a.2.2,0,0,0-.07-.15.53.53,0,0,0-.4-.16,36.46,36.46,0,0,0-11.41,2,.19.19,0,0,0-.13.18v.6a.2.2,0,0,0,.15.19l2.46.64c1.83.42,2.47,1.2,2.56,3.09.07,1.69.07,4.73.07,8.25V40.18c0,3.73,0,7.59-.07,9.57s-.24,2.32-2.09,2.93l-2.29.7a.21.21,0,0,0-.13.19v.91a.19.19,0,0,0,.19.19h15.56a.2.2,0,0,0,.19-.19v-.91A.2.2,0,0,0,217.59,53.38Z"/><circle class="cls-1" cx="235.75" cy="50.84" r="4.25"/><path class="cls-1" d="M16.53,53.31l-2.29-.7c-1.71-.54-2-1-2.08-3s-.07-5.56-.07-9.34V20.53a2.1,2.1,0,0,0-.43-1.34,1.17,1.17,0,0,0-.91-.32,36.85,36.85,0,0,0-10.62,2,.19.19,0,0,0-.13.18v.58a.19.19,0,0,0,.15.19l2.48.59c1.66.45,2.52,1.06,2.61,3.09.07,1.76.07,5.39.07,8.9v5.9c0,3.82,0,7.44-.07,9.41s-.34,2.34-2.15,2.94l-2.23.7a.2.2,0,0,0-.13.19v.91a.19.19,0,0,0,.19.19H16.48a.2.2,0,0,0,.19-.19v-1A.19.19,0,0,0,16.53,53.31Z"/><path class="cls-1" d="M142,52.11l-2.55-.59C137.62,51,137,50.29,137,48.44s-.08-5.4-.08-8.91V.28a.14.14,0,0,0,0-.07.19.19,0,0,0-.16-.2h-.25a36.46,36.46,0,0,0-11.56,2,.2.2,0,0,0-.13.19v.59a.2.2,0,0,0,.14.19l2.46.64c1.89.41,2.55,1.19,2.64,3.09.07,1.69.07,4.73.07,8.25L130.32,50v4.17a1.18,1.18,0,0,0,.24.72.86.86,0,0,0,.62.2h.06a37.55,37.55,0,0,0,10.82-2,.2.2,0,0,0,.13-.18V52.3A.19.19,0,0,0,142,52.11Z"/><path class="cls-1" d="M186.48,34.14h.09a.18.18,0,0,0,.17-.12.54.54,0,0,0,0-.26c.07-5-1.28-9.11-3.91-11.77a13,13,0,0,0-9.52-3.59,15.74,15.74,0,0,0-10.75,3.86,17.48,17.48,0,0,0-5.68,11.09c0,.41,0,.52.05.61a.38.38,0,0,0,.3.16ZM171.68,21c4.54,0,7.46,3.17,8,8.7a1.17,1.17,0,0,1-.25,1.06,1,1,0,0,1-.77.26h-14a1,1,0,0,1-.91-.38,2,2,0,0,1-.09-1.41v-.08a10.65,10.65,0,0,1,2.9-6.25A7.46,7.46,0,0,1,171.68,21Z"/><path class="cls-1" d="M187.14,48.31a22,22,0,0,1-9.56,2.36c-6.48,0-11.14-3.28-13.11-9.22l-.12-.39a.2.2,0,0,0-.19-.13h-6.85a.2.2,0,0,0-.14.06.25.25,0,0,0,0,.15,2.69,2.69,0,0,0,0,.29c1.62,8.75,7.76,14,16.41,14a18.91,18.91,0,0,0,13.68-6,.19.19,0,0,0,.05-.1l.12-.83a.2.2,0,0,0-.28-.2Z"/><path class="cls-1" d="M123.2,18.47h-.06a18.45,18.45,0,0,0-11.62,3.7c-4.7,3.38-7.19,9-7.19,16.19,0,10.08,5.78,17.11,14,17.11a14.29,14.29,0,0,0,4.75-.87.19.19,0,0,0,.21-.11,1.2,1.2,0,0,0,0-.23v-3a.21.21,0,0,0-.07-.14.19.19,0,0,0-.14-.05c-.2,0-.41,0-.65,0-6.78,0-11-5.88-11-15.36,0-5.61,1.47-9.85,4.14-12a9.61,9.61,0,0,1,6.27-2,11.72,11.72,0,0,1,1.22.08.17.17,0,0,0,.15-.05.19.19,0,0,0,.07-.14v-3A.2.2,0,0,0,123.2,18.47Z"/><path class="cls-1" d="M40,53.38l-2.22-.7c-1.91-.61-2.08-1-2.16-2.94s-.07-5.83-.07-9.56V32.47c0-9.9-3.37-14.13-11.28-14.13a14.3,14.3,0,0,0-5,.91.19.19,0,0,0-.11.09.56.56,0,0,0,0,.19V23a.16.16,0,0,0,.07.14.17.17,0,0,0,.15.05,10.91,10.91,0,0,1,1.37-.08c7.43,0,8,5.46,8,13.17v4c0,4,0,7.36-.08,9.34s-.36,2.46-2,3l-2.36.71a.19.19,0,0,0-.14.18v1a.2.2,0,0,0,.19.19H39.9a.2.2,0,0,0,.2-.19v-.91A.2.2,0,0,0,40,53.38Z"/></svg>