<?xml version="1.0" encoding="utf-8"?>
<!-- Generator: Adobe Illustrator 26.0.1, SVG Export Plug-In . SVG Version: 6.00 Build 0)  -->
<svg version="1.1" id="logo" xmlns="http://www.w3.org/2000/svg" xmlns:xlink="http://www.w3.org/1999/xlink" x="0px" y="0px"
	 viewBox="0 0 240 56" style="enable-background:new 0 0 240 56;" xml:space="preserve">
<style type="text/css">
	.st0{fill:#231815;}
</style>
<path class="st0" d="M71.9,18.8c-3.9,0-7.7,1.1-11,3.2c-5.1,3.4-7.7,8.7-7.7,15.8c0,11.1,6.5,17.8,17.4,17.8s18.1-7.8,18.1-19.4
	c0.1-3.5-0.8-6.9-2.4-10C83.3,21.2,78.6,18.8,71.9,18.8z M71.6,52.6c-6.7,0-11.1-6.4-11.1-16.3c0-12,5.3-14.6,9.8-14.6
	c3.5-0.2,6.8,1.7,8.5,4.8c1.7,2.8,2.5,6.5,2.5,11.8C81.3,47.1,77.6,52.6,71.6,52.6z"/>
<path class="st0" d="M217.6,53.6l-2.2-0.7c-1.8-0.6-2.1-1-2.1-2.9s-0.1-5.8-0.1-9.6V0.6c0-0.1,0-0.1-0.1-0.2
	c-0.1-0.1-0.3-0.2-0.4-0.2c-3.9,0.1-7.7,0.7-11.4,2c-0.1,0-0.1,0.1-0.1,0.2V3c0,0.1,0.1,0.2,0.1,0.2l2.5,0.6
	c1.8,0.4,2.5,1.2,2.6,3.1c0.1,1.7,0.1,4.7,0.1,8.2v25.2c0,3.7,0,7.6-0.1,9.6s-0.2,2.3-2.1,2.9l-2.3,0.7c-0.1,0-0.1,0.1-0.1,0.2v0.9
	c0,0.1,0.1,0.2,0.2,0.2l0,0h15.6c0.1,0,0.2-0.1,0.2-0.2v-0.9C217.7,53.7,217.7,53.7,217.6,53.6z"/>
<circle class="st0" cx="235.8" cy="51.1" r="4.2"/>
<path class="st0" d="M16.5,53.6l-2.3-0.7c-1.7-0.5-2-1-2.1-3s-0.1-5.6-0.1-9.3V20.8c0-0.5-0.1-1-0.4-1.3c-0.2-0.2-0.6-0.3-0.9-0.3
	c-3.6,0.1-7.2,0.8-10.6,2c-0.1,0-0.1,0.1-0.1,0.2v0.6c0,0.1,0.1,0.2,0.2,0.2l2.5,0.6c1.7,0.5,2.5,1.1,2.6,3.1
	c0.1,1.8,0.1,5.4,0.1,8.9v5.9c0,3.8,0,7.4-0.1,9.4s-0.3,2.3-2.2,2.9l-2.2,0.7c-0.1,0-0.1,0.1-0.1,0.2v0.9c0,0.1,0.1,0.2,0.2,0.2
	h15.6c0.1,0,0.2-0.1,0.2-0.2v-1C16.7,53.6,16.6,53.6,16.5,53.6z"/>
<path class="st0" d="M142,52.4l-2.6-0.6c-1.8-0.5-2.4-1.2-2.4-3.1s-0.1-5.4-0.1-8.9V0.5c0,0,0,0,0-0.1c0-0.1-0.1-0.2-0.2-0.2h-0.2
	c-3.9,0-7.8,0.7-11.6,2c-0.1,0-0.1,0.1-0.1,0.2v0.6c0,0.1,0.1,0.2,0.1,0.2l2.5,0.6c1.9,0.4,2.6,1.2,2.6,3.1c0.1,1.7,0.1,4.7,0.1,8.2
	l0.2,35v4.2c0,0.3,0.1,0.5,0.2,0.7c0.2,0.1,0.4,0.2,0.6,0.2h0.1c3.7-0.1,7.3-0.8,10.8-2c0.1,0,0.1-0.1,0.1-0.2v-0.6
	C142.2,52.5,142.1,52.4,142,52.4L142,52.4z"/>
<path class="st0" d="M186.6,34.4c0.1,0,0.1,0,0.2-0.1c0-0.1,0-0.2,0-0.3c0.1-5-1.3-9.1-3.9-11.8c-2.6-2.4-6-3.7-9.5-3.6
	c-3.9-0.1-7.8,1.3-10.8,3.9c-3.2,2.9-5.2,6.8-5.7,11.1c0,0.4,0,0.5,0.1,0.6c0.1,0.1,0.2,0.2,0.3,0.2L186.6,34.4z M171.7,21.3
	c4.5,0,7.5,3.2,8,8.7c0.1,0.4,0,0.8-0.2,1.1c-0.2,0.2-0.5,0.3-0.8,0.3h-14c-0.3,0-0.7-0.1-0.9-0.4c-0.2-0.4-0.2-0.9-0.1-1.4v-0.1
	c0.2-2.3,1.3-4.5,2.9-6.2C168,21.9,169.8,21.2,171.7,21.3z"/>
<path class="st0" d="M187.1,48.6c-3,1.5-6.2,2.3-9.6,2.4c-6.5,0-11.1-3.3-13.1-9.2l-0.1-0.4c0-0.1-0.1-0.1-0.2-0.1h-6.9
	c-0.1,0-0.1,0-0.1,0.1c0,0,0,0.1,0,0.2c0,0.1,0,0.2,0,0.3c1.6,8.8,7.8,14,16.4,14c5.2,0,10.1-2.2,13.7-6c0,0,0-0.1,0.1-0.1l0.1-0.8
	c0-0.1-0.1-0.2-0.2-0.2C187.2,48.5,187.2,48.6,187.1,48.6L187.1,48.6z"/>
<path class="st0" d="M123.2,18.7L123.2,18.7c-4.2-0.1-8.3,1.2-11.7,3.7c-4.7,3.4-7.2,9-7.2,16.2c0,10.1,5.8,17.1,14,17.1
	c1.6,0,3.2-0.3,4.8-0.9c0.1,0,0.2,0,0.2-0.1c0-0.1,0-0.2,0-0.2v-3c0-0.1,0-0.1-0.1-0.1c0,0-0.1-0.1-0.1,0c-0.2,0-0.4,0-0.7,0
	c-6.8,0-11-5.9-11-15.4c0-5.6,1.5-9.9,4.1-12c1.8-1.4,4-2.1,6.3-2c0.4,0,0.8,0,1.2,0.1c0.1,0,0.1,0,0.2,0c0,0,0.1-0.1,0.1-0.1v-3
	C123.3,18.8,123.2,18.8,123.2,18.7z"/>
<path class="st0" d="M40,53.6l-2.2-0.7c-1.9-0.6-2.1-1-2.2-2.9s-0.1-5.8-0.1-9.6v-7.7c0-9.9-3.4-14.1-11.3-14.1
	c-1.7,0-3.4,0.3-5,0.9c0,0-0.1,0-0.1,0.1c0,0.1,0,0.1,0,0.2v3.5c0,0.1,0,0.1,0.1,0.1c0,0,0.1,0.1,0.1,0c0.5-0.1,0.9-0.1,1.4-0.1
	c7.4,0,8,5.5,8,13.2v4c0,4,0,7.4-0.1,9.3s-0.4,2.5-2,3l-2.4,0.7c-0.1,0-0.1,0.1-0.1,0.2v1c0,0.1,0.1,0.2,0.2,0.2h15.5
	c0.1,0,0.2-0.1,0.2-0.2v-0.9C40.1,53.8,40.1,53.7,40,53.6z"/>
</svg>
